{
  "accessors": [
    {
      "bufferView": 2,
      "componentType": 5126,
      "count": 943,
      "max": [
        1.865056037902832,
        2.309283971786499,
        1.7293070554733276
      ],
      "min": [
        -1.5463440418243408,
        -4.166324138641357,
        -1.8909929990768433
      ],
      "type": "VEC3"
    },
    {
      "bufferView": 2,
      "byteOffset": 11316,
      "componentType": 5126,
      "count": 943,
      "max": [
        0.9994204640388489,
        1.0,
        0.9875785112380981
      ],
      "min": [
        -0.9952880144119263,
        -1.0,
        -0.9997697472572327
      ],
      "type": "VEC3"
    },
    {
      "bufferView": 3,
      "componentType": 5126,
      "count": 943,
      "max": [
        0.9999987483024597,
        0.9999784827232361,
        1.0,
        1.0
      ],
      "min": [
        -0.9997972249984741,
        -0.9999852776527405,
        -1.0,
        -1.0
      ],
      "type": "VEC4"
    },
    {
      "bufferView": 1,
      "componentType": 5126,
      "count": 943,
      "max": [
        0.6365569829940796,
        0.9900000095367432
      ],
      "min": [
        0.009999999776482582,
        0.36545100808143616
      ],
      "type": "VEC2"
    },
    {
      "bufferView": 0,
      "componentType": 5125,
      "count": 1053,
      "type": "SCALAR"
    },
    {
      "bufferView": 2,
      "byteOffset": 22632,
      "componentType": 5126,
      "count": 15332,
      "max": [
        2.9523699283599854,
        3.349123001098633,
        3.0426549911499023
      ],
      "min": [
        -2.558274984359741,
        -4.639916896820068,
        -2.1543850898742676
      ],
      "type": "VEC3"
    },
    {
      "bufferView": 2,
      "byteOffset": 206616,
      "componentType": 5126,
      "count": 15332,
      "max": [
        0.9999449849128723,
        0.9993118643760681,
        0.9998147487640381
      ],
      "min": [
        -0.9999547600746155,
        -0.9999983310699463,
        -0.9999836683273315
      ],
      "type": "VEC3"
    },
    {
      "bufferView": 3,
      "byteOffset": 15088,
      "componentType": 5126,
      "count": 15332,
      "max": [
        0.9999929666519165,
        0.9999938011169434,
        0.9999196529388428,
        1.0
      ],
      "min": [
        -0.9999806880950928,
        -0.9998196363449097,
        -0.9999988079071045,
        -1.0
      ],
      "type": "VEC4"
    },
    {
      "bufferView": 1,
      "byteOffset": 7544,
      "componentType": 5126,
      "count": 15332,
      "max": [
        0.9900000095367432,
        0.9900000095367432
      ],
      "min": [
        0.009999999776482582,
        0.027862999588251114
      ],
      "type": "VEC2"
    },
    {
      "bufferView": 0,
      "byteOffset": 4212,
      "componentType": 5125,
      "count": 78288,
      "type": "SCALAR"
    }
  ],
  "asset": {
    "extras": {
      "author": "Zafio (https://sketchfab.com/zafio)",
      "license": "CC-BY-NC-SA-4.0 (http://creativecommons.org/licenses/by-nc-sa/4.0/)",
      "source": "https://sketchfab.com/3d-models/statue-of-edward-snowden-04d109f5edb3407ca8939a109742fece",
      "title": "Statue Of Edward Snowden"
    },
    "generator": "Sketchfab-12.68.0",
    "version": "2.0"
  },
  "bufferViews": [
    {
      "buffer": 0,
      "byteLength": 317364,
      "name": "floatBufferViews",
      "target": 34963
    },
    {
      "buffer": 0,
      "byteLength": 130200,
      "byteOffset": 317364,
      "byteStride": 8,
      "name": "floatBufferViews",
      "target": 34962
    },
    {
      "buffer": 0,
      "byteLength": 390600,
      "byteOffset": 447564,
      "byteStride": 12,
      "name": "floatBufferViews",
      "target": 34962
    },
    {
      "buffer": 0,
      "byteLength": 260400,
      "byteOffset": 838164,
      "byteStride": 16,
      "name": "floatBufferViews",
      "target": 34962
    }
  ],
  "buffers": [
    {
      "byteLength": 1098564,
      "uri": "scene.bin"
    }
  ],
  "images": [
    {
      "uri": "textures/default_baseColor.jpeg"
    },
    {
      "uri": "textures/default_metallicRoughness.png"
    },
    {
      "uri": "textures/default_normal.jpeg"
    }
  ],
  "materials": [
    {
      "name": "default",
      "normalTexture": {
        "index": 2
      },
      "occlusionTexture": {
        "index": 1
      },
      "pbrMetallicRoughness": {
        "baseColorFactor": [
          0.6,
          0.6,
          0.6,
          1.0
        ],
        "baseColorTexture": {
          "index": 0
        },
        "metallicFactor": 0.9,
        "metallicRoughnessTexture": {
          "index": 1
        },
        "roughnessFactor": 0.85
      }
    }
  ],
  "meshes": [
    {
      "name": "Object_0",
      "primitives": [
        {
          "attributes": {
            "NORMAL": 1,
            "POSITION": 0,
            "TANGENT": 2,
            "TEXCOORD_0": 3
          },
          "indices": 4,
          "material": 0,
          "mode": 4
        }
      ]
    },
    {
      "name": "Object_1",
      "primitives": [
        {
          "attributes": {
            "NORMAL": 6,
            "POSITION": 5,
            "TANGENT": 7,
            "TEXCOORD_0": 8
          },
          "indices": 9,
          "material": 0,
          "mode": 4
        }
      ]
    }
  ],
  "nodes": [
    {
      "children": [
        1
      ],
      "matrix": [
        -0.9999690055847168,
        0.006337095517665149,
        -0.004672442097216843,
        0.0,
        0.006337164435535669,
        0.9999799132347107,
        2.2204014476716842e-16,
        0.0,
        0.004672348499298096,
        -2.9610000637836368e-05,
        -0.9999890923500061,
        0.0,
        0.39611566066741943,
        1.088288903236389,
        1.090453386306763,
        1.0
      ],
      "name": "Sketchfab_model"
    },
    {
      "children": [
        2,
        3
      ],
      "name": "snow.obj.cleaner"
    },
    {
      "mesh": 0,
      "name": "Object_2"
    },
    {
      "mesh": 1,
      "name": "Object_3"
    }
  ],
  "samplers": [
    {
      "magFilter": 9729,
      "minFilter": 9987,
      "wrapS": 10497,
      "wrapT": 10497
    }
  ],
  "scene": 0,
  "scenes": [
    {
      "name": "Sketchfab_Scene",
      "nodes": [
        0
      ]
    }
  ],
  "textures": [
    {
      "sampler": 0,
      "source": 0
    },
    {
      "sampler": 0,
      "source": 1
    },
    {
      "sampler": 0,
      "source": 2
    }
  ]
}
