<svg width="1363" height="163" viewBox="0 0 1363 163" fill="none" xmlns="http://www.w3.org/2000/svg">
<path d="M0 15C0 6.71573 6.71573 0 15 0H37V163H15C6.71573 163 0 156.284 0 148V15Z" fill="#333333"/>
<rect width="1097" height="163" transform="translate(37)" fill="#F0F0F0"/>
<path d="M101.906 53.9219L94.3945 51.2383V48.0859L104.602 52.375V54.6367L101.906 53.9219ZM94.3945 56.1719L101.918 53.4297L104.602 52.7852V55.0352L94.3945 59.3242V56.1719ZM114.504 43.9375H117.48L121.863 56.4648L126.246 43.9375H129.223L123.059 61H120.668L114.504 43.9375ZM112.898 43.9375H115.863L116.402 56.1484V61H112.898V43.9375ZM127.863 43.9375H130.84V61H127.324V56.1484L127.863 43.9375ZM141.211 57.9648V48.3203H144.586V61H141.41L141.211 57.9648ZM141.586 55.3633L142.582 55.3398C142.582 56.1836 142.484 56.9688 142.289 57.6953C142.094 58.4141 141.801 59.0391 141.41 59.5703C141.02 60.0938 140.527 60.5039 139.934 60.8008C139.34 61.0898 138.641 61.2344 137.836 61.2344C137.219 61.2344 136.648 61.1484 136.125 60.9766C135.609 60.7969 135.164 60.5195 134.789 60.1445C134.422 59.7617 134.133 59.2734 133.922 58.6797C133.719 58.0781 133.617 57.3555 133.617 56.5117V48.3203H136.992V56.5352C136.992 56.9102 137.035 57.2266 137.121 57.4844C137.215 57.7422 137.344 57.9531 137.508 58.1172C137.672 58.2812 137.863 58.3984 138.082 58.4688C138.309 58.5391 138.559 58.5742 138.832 58.5742C139.527 58.5742 140.074 58.4336 140.473 58.1523C140.879 57.8711 141.164 57.4883 141.328 57.0039C141.5 56.5117 141.586 55.9648 141.586 55.3633ZM154.02 57.4961C154.02 57.2539 153.949 57.0352 153.809 56.8398C153.668 56.6445 153.406 56.4648 153.023 56.3008C152.648 56.1289 152.105 55.9727 151.395 55.832C150.754 55.6914 150.156 55.5156 149.602 55.3047C149.055 55.0859 148.578 54.8242 148.172 54.5195C147.773 54.2148 147.461 53.8555 147.234 53.4414C147.008 53.0195 146.895 52.5391 146.895 52C146.895 51.4688 147.008 50.9688 147.234 50.5C147.469 50.0312 147.801 49.6172 148.23 49.2578C148.668 48.8906 149.199 48.6055 149.824 48.4023C150.457 48.1914 151.168 48.0859 151.957 48.0859C153.059 48.0859 154.004 48.2617 154.793 48.6133C155.59 48.9648 156.199 49.4492 156.621 50.0664C157.051 50.6758 157.266 51.3711 157.266 52.1523H153.891C153.891 51.8242 153.82 51.5312 153.68 51.2734C153.547 51.0078 153.336 50.8008 153.047 50.6523C152.766 50.4961 152.398 50.418 151.945 50.418C151.57 50.418 151.246 50.4844 150.973 50.6172C150.699 50.7422 150.488 50.9141 150.34 51.1328C150.199 51.3438 150.129 51.5781 150.129 51.8359C150.129 52.0312 150.168 52.207 150.246 52.3633C150.332 52.5117 150.469 52.6484 150.656 52.7734C150.844 52.8984 151.086 53.0156 151.383 53.125C151.688 53.2266 152.062 53.3203 152.508 53.4062C153.422 53.5938 154.238 53.8398 154.957 54.1445C155.676 54.4414 156.246 54.8477 156.668 55.3633C157.09 55.8711 157.301 56.5391 157.301 57.3672C157.301 57.9297 157.176 58.4453 156.926 58.9141C156.676 59.3828 156.316 59.793 155.848 60.1445C155.379 60.4883 154.816 60.7578 154.16 60.9531C153.512 61.1406 152.781 61.2344 151.969 61.2344C150.789 61.2344 149.789 61.0234 148.969 60.6016C148.156 60.1797 147.539 59.6445 147.117 58.9961C146.703 58.3398 146.496 57.668 146.496 56.9805H149.695C149.711 57.4414 149.828 57.8125 150.047 58.0938C150.273 58.375 150.559 58.5781 150.902 58.7031C151.254 58.8281 151.633 58.8906 152.039 58.8906C152.477 58.8906 152.84 58.832 153.129 58.7148C153.418 58.5898 153.637 58.4258 153.785 58.2227C153.941 58.0117 154.02 57.7695 154.02 57.4961ZM165.328 61.2344C164.344 61.2344 163.461 61.0781 162.68 60.7656C161.898 60.4453 161.234 60.0039 160.688 59.4414C160.148 58.8789 159.734 58.2266 159.445 57.4844C159.156 56.7344 159.012 55.9375 159.012 55.0938V54.625C159.012 53.6641 159.148 52.7852 159.422 51.9883C159.695 51.1914 160.086 50.5 160.594 49.9141C161.109 49.3281 161.734 48.8789 162.469 48.5664C163.203 48.2461 164.031 48.0859 164.953 48.0859C165.852 48.0859 166.648 48.2344 167.344 48.5312C168.039 48.8281 168.621 49.25 169.09 49.7969C169.566 50.3438 169.926 51 170.168 51.7656C170.41 52.5234 170.531 53.3672 170.531 54.2969V55.7031H160.453V53.4531H167.215V53.1953C167.215 52.7266 167.129 52.3086 166.957 51.9414C166.793 51.5664 166.543 51.2695 166.207 51.0508C165.871 50.832 165.441 50.7227 164.918 50.7227C164.473 50.7227 164.09 50.8203 163.77 51.0156C163.449 51.2109 163.188 51.4844 162.984 51.8359C162.789 52.1875 162.641 52.6016 162.539 53.0781C162.445 53.5469 162.398 54.0625 162.398 54.625V55.0938C162.398 55.6016 162.469 56.0703 162.609 56.5C162.758 56.9297 162.965 57.3008 163.23 57.6133C163.504 57.9258 163.832 58.168 164.215 58.3398C164.605 58.5117 165.047 58.5977 165.539 58.5977C166.148 58.5977 166.715 58.4805 167.238 58.2461C167.77 58.0039 168.227 57.6406 168.609 57.1562L170.25 58.9375C169.984 59.3203 169.621 59.6875 169.16 60.0391C168.707 60.3906 168.16 60.6797 167.52 60.9062C166.879 61.125 166.148 61.2344 165.328 61.2344ZM171.914 54.7891V54.543C171.914 53.6133 172.047 52.7578 172.312 51.9766C172.578 51.1875 172.965 50.5039 173.473 49.9258C173.98 49.3477 174.605 48.8984 175.348 48.5781C176.09 48.25 176.941 48.0859 177.902 48.0859C178.863 48.0859 179.719 48.25 180.469 48.5781C181.219 48.8984 181.848 49.3477 182.355 49.9258C182.871 50.5039 183.262 51.1875 183.527 51.9766C183.793 52.7578 183.926 53.6133 183.926 54.543V54.7891C183.926 55.7109 183.793 56.5664 183.527 57.3555C183.262 58.1367 182.871 58.8203 182.355 59.4062C181.848 59.9844 181.223 60.4336 180.48 60.7539C179.738 61.0742 178.887 61.2344 177.926 61.2344C176.965 61.2344 176.109 61.0742 175.359 60.7539C174.617 60.4336 173.988 59.9844 173.473 59.4062C172.965 58.8203 172.578 58.1367 172.312 57.3555C172.047 56.5664 171.914 55.7109 171.914 54.7891ZM175.289 54.543V54.7891C175.289 55.3203 175.336 55.8164 175.43 56.2773C175.523 56.7383 175.672 57.1445 175.875 57.4961C176.086 57.8398 176.359 58.1094 176.695 58.3047C177.031 58.5 177.441 58.5977 177.926 58.5977C178.395 58.5977 178.797 58.5 179.133 58.3047C179.469 58.1094 179.738 57.8398 179.941 57.4961C180.145 57.1445 180.293 56.7383 180.387 56.2773C180.488 55.8164 180.539 55.3203 180.539 54.7891V54.543C180.539 54.0273 180.488 53.543 180.387 53.0898C180.293 52.6289 180.141 52.2227 179.93 51.8711C179.727 51.5117 179.457 51.2305 179.121 51.0273C178.785 50.8242 178.379 50.7227 177.902 50.7227C177.426 50.7227 177.02 50.8242 176.684 51.0273C176.355 51.2305 176.086 51.5117 175.875 51.8711C175.672 52.2227 175.523 52.6289 175.43 53.0898C175.336 53.543 175.289 54.0273 175.289 54.543Z" fill="#888888"/>
<path d="M118.594 98.4219V104.75H101.086V98.4219H118.594ZM103.828 84.875V119H95.6016V84.875H103.828ZM124.125 84.875V119H115.922V84.875H124.125ZM127.992 106.578V106.086C127.992 104.227 128.258 102.516 128.789 100.953C129.32 99.375 130.102 98.0078 131.133 96.8516C132.164 95.6953 133.438 94.7969 134.953 94.1562C136.469 93.5 138.219 93.1719 140.203 93.1719C142.203 93.1719 143.961 93.5 145.477 94.1562C147.008 94.7969 148.289 95.6953 149.32 96.8516C150.352 98.0078 151.133 99.375 151.664 100.953C152.195 102.516 152.461 104.227 152.461 106.086V106.578C152.461 108.422 152.195 110.133 151.664 111.711C151.133 113.273 150.352 114.641 149.32 115.812C148.289 116.969 147.016 117.867 145.5 118.508C143.984 119.148 142.234 119.469 140.25 119.469C138.266 119.469 136.508 119.148 134.977 118.508C133.445 117.867 132.164 116.969 131.133 115.812C130.102 114.641 129.32 113.273 128.789 111.711C128.258 110.133 127.992 108.422 127.992 106.578ZM135.891 106.086V106.578C135.891 107.531 135.961 108.422 136.102 109.25C136.242 110.078 136.477 110.805 136.805 111.43C137.133 112.039 137.578 112.516 138.141 112.859C138.703 113.203 139.406 113.375 140.25 113.375C141.078 113.375 141.766 113.203 142.312 112.859C142.875 112.516 143.32 112.039 143.648 111.43C143.977 110.805 144.211 110.078 144.352 109.25C144.492 108.422 144.562 107.531 144.562 106.578V106.086C144.562 105.164 144.492 104.297 144.352 103.484C144.211 102.656 143.977 101.93 143.648 101.305C143.32 100.664 142.875 100.164 142.312 99.8047C141.75 99.4453 141.047 99.2656 140.203 99.2656C139.375 99.2656 138.68 99.4453 138.117 99.8047C137.57 100.164 137.133 100.664 136.805 101.305C136.477 101.93 136.242 102.656 136.102 103.484C135.961 104.297 135.891 105.164 135.891 106.086ZM163.688 111.453L168.375 93.6406H173.32L171.562 102.57L166.922 119H162.961L163.688 111.453ZM161.836 93.6406L164.742 111.312L165.07 119H160.266L154.266 93.6406H161.836ZM177.492 110.938L180.422 93.6406H187.992L182.039 119H177.234L177.492 110.938ZM173.883 93.6406L178.617 111.406L179.344 119H175.336L170.789 102.617L169.102 93.6406H173.883ZM218.297 84.875V119H210.07V84.875H218.297ZM228.562 84.875V91.2266H200.039V84.875H228.562ZM225.773 106.578V106.086C225.773 104.227 226.039 102.516 226.57 100.953C227.102 99.375 227.883 98.0078 228.914 96.8516C229.945 95.6953 231.219 94.7969 232.734 94.1562C234.25 93.5 236 93.1719 237.984 93.1719C239.984 93.1719 241.742 93.5 243.258 94.1562C244.789 94.7969 246.07 95.6953 247.102 96.8516C248.133 98.0078 248.914 99.375 249.445 100.953C249.977 102.516 250.242 104.227 250.242 106.086V106.578C250.242 108.422 249.977 110.133 249.445 111.711C248.914 113.273 248.133 114.641 247.102 115.812C246.07 116.969 244.797 117.867 243.281 118.508C241.766 119.148 240.016 119.469 238.031 119.469C236.047 119.469 234.289 119.148 232.758 118.508C231.227 117.867 229.945 116.969 228.914 115.812C227.883 114.641 227.102 113.273 226.57 111.711C226.039 110.133 225.773 108.422 225.773 106.578ZM233.672 106.086V106.578C233.672 107.531 233.742 108.422 233.883 109.25C234.023 110.078 234.258 110.805 234.586 111.43C234.914 112.039 235.359 112.516 235.922 112.859C236.484 113.203 237.188 113.375 238.031 113.375C238.859 113.375 239.547 113.203 240.094 112.859C240.656 112.516 241.102 112.039 241.43 111.43C241.758 110.805 241.992 110.078 242.133 109.25C242.273 108.422 242.344 107.531 242.344 106.578V106.086C242.344 105.164 242.273 104.297 242.133 103.484C241.992 102.656 241.758 101.93 241.43 101.305C241.102 100.664 240.656 100.164 240.094 99.8047C239.531 99.4453 238.828 99.2656 237.984 99.2656C237.156 99.2656 236.461 99.4453 235.898 99.8047C235.352 100.164 234.914 100.664 234.586 101.305C234.258 101.93 234.023 102.656 233.883 103.484C233.742 104.297 233.672 105.164 233.672 106.086ZM266.086 84.875H279.516C282.141 84.875 284.422 85.2656 286.359 86.0469C288.297 86.8281 289.789 87.9844 290.836 89.5156C291.898 91.0469 292.43 92.9375 292.43 95.1875C292.43 97.1406 292.125 98.7734 291.516 100.086C290.906 101.398 290.055 102.484 288.961 103.344C287.883 104.188 286.625 104.883 285.188 105.43L282.492 106.953H271.219L271.172 100.602H279.516C280.562 100.602 281.43 100.414 282.117 100.039C282.805 99.6641 283.32 99.1328 283.664 98.4453C284.023 97.7422 284.203 96.9062 284.203 95.9375C284.203 94.9531 284.023 94.1094 283.664 93.4062C283.305 92.7031 282.773 92.1641 282.07 91.7891C281.383 91.4141 280.531 91.2266 279.516 91.2266H274.312V119H266.086V84.875ZM284.766 119L277.219 103.906L285.938 103.859L293.578 118.648V119H284.766ZM311.836 112.836V93.6406H319.758V119H312.352L311.836 112.836ZM312.586 107.68L314.648 107.633C314.648 109.336 314.445 110.914 314.039 112.367C313.633 113.805 313.031 115.055 312.234 116.117C311.453 117.18 310.484 118.008 309.328 118.602C308.188 119.18 306.867 119.469 305.367 119.469C304.117 119.469 302.969 119.297 301.922 118.953C300.891 118.594 300 118.039 299.25 117.289C298.5 116.523 297.914 115.547 297.492 114.359C297.086 113.156 296.883 111.719 296.883 110.047V93.6406H304.781V110.094C304.781 110.656 304.852 111.141 304.992 111.547C305.133 111.953 305.336 112.297 305.602 112.578C305.867 112.844 306.195 113.047 306.586 113.188C306.992 113.312 307.453 113.375 307.969 113.375C309.156 113.375 310.086 113.125 310.758 112.625C311.43 112.125 311.898 111.445 312.164 110.586C312.445 109.727 312.586 108.758 312.586 107.68ZM331.875 99.0547V119H323.977V93.6406H331.383L331.875 99.0547ZM330.938 105.453L329.086 105.5C329.086 103.562 329.32 101.836 329.789 100.32C330.258 98.7891 330.922 97.4922 331.781 96.4297C332.641 95.3672 333.664 94.5625 334.852 94.0156C336.055 93.4531 337.391 93.1719 338.859 93.1719C340.031 93.1719 341.102 93.3438 342.07 93.6875C343.055 94.0312 343.898 94.5859 344.602 95.3516C345.32 96.1172 345.867 97.1328 346.242 98.3984C346.633 99.6484 346.828 101.195 346.828 103.039V119H338.883V103.016C338.883 102 338.742 101.227 338.461 100.695C338.18 100.148 337.773 99.7734 337.242 99.5703C336.711 99.3672 336.062 99.2656 335.297 99.2656C334.484 99.2656 333.797 99.4219 333.234 99.7344C332.672 100.047 332.219 100.484 331.875 101.047C331.547 101.594 331.305 102.242 331.148 102.992C331.008 103.742 330.938 104.562 330.938 105.453ZM363.773 108.195H357.047C357.047 106.82 357.141 105.609 357.328 104.562C357.531 103.5 357.875 102.547 358.359 101.703C358.844 100.859 359.5 100.078 360.328 99.3594C361.062 98.75 361.695 98.1641 362.227 97.6016C362.758 97.0391 363.164 96.4688 363.445 95.8906C363.727 95.3125 363.867 94.6953 363.867 94.0391C363.867 93.2266 363.75 92.5625 363.516 92.0469C363.297 91.5312 362.961 91.1484 362.508 90.8984C362.07 90.6328 361.516 90.5 360.844 90.5C360.297 90.5 359.781 90.6328 359.297 90.8984C358.828 91.1641 358.445 91.5781 358.148 92.1406C357.852 92.6875 357.688 93.4141 357.656 94.3203H349.711C349.758 91.9922 350.273 90.1016 351.258 88.6484C352.258 87.1797 353.586 86.1094 355.242 85.4375C356.914 84.75 358.781 84.4062 360.844 84.4062C363.125 84.4062 365.086 84.7578 366.727 85.4609C368.367 86.1641 369.625 87.2109 370.5 88.6016C371.375 89.9766 371.812 91.6719 371.812 93.6875C371.812 95.0312 371.555 96.2031 371.039 97.2031C370.539 98.1875 369.859 99.1094 369 99.9688C368.156 100.812 367.211 101.719 366.164 102.688C365.258 103.484 364.641 104.297 364.312 105.125C363.984 105.938 363.805 106.961 363.773 108.195ZM356.086 115.32C356.086 114.195 356.492 113.258 357.305 112.508C358.117 111.742 359.172 111.359 360.469 111.359C361.766 111.359 362.82 111.742 363.633 112.508C364.445 113.258 364.852 114.195 364.852 115.32C364.852 116.445 364.445 117.391 363.633 118.156C362.82 118.906 361.766 119.281 360.469 119.281C359.172 119.281 358.117 118.906 357.305 118.156C356.492 117.391 356.086 116.445 356.086 115.32Z" fill="black"/>
<path d="M1134 0H1348C1356.28 0 1363 6.71573 1363 15V148C1363 156.284 1356.28 163 1348 163H1134V0Z" fill="#DCD0C3"/>
<path d="M1260.62 78.8847C1263.81 78.8847 1266.93 79.805 1269.59 81.5293C1272.25 83.2536 1274.32 85.7044 1275.54 88.5718C1276.76 91.4391 1277.08 94.5943 1276.46 97.6383C1275.84 100.682 1274.3 103.478 1272.04 105.673C1269.78 107.868 1266.9 109.362 1263.77 109.968C1260.63 110.573 1257.39 110.262 1254.43 109.075C1251.48 107.887 1248.96 105.876 1247.18 103.295C1245.41 100.714 1244.46 97.6806 1244.46 94.5769C1244.46 90.4151 1246.16 86.4237 1249.19 83.4808C1252.22 80.538 1256.33 78.8847 1260.62 78.8847ZM1260.62 73.6539C1256.36 73.6539 1252.19 74.881 1248.65 77.1801C1245.11 79.4791 1242.35 82.7469 1240.72 86.57C1239.09 90.3932 1238.66 94.6001 1239.49 98.6588C1240.32 102.717 1242.37 106.446 1245.39 109.372C1248.4 112.298 1252.24 114.291 1256.41 115.098C1260.59 115.905 1264.92 115.491 1268.86 113.907C1272.79 112.324 1276.16 109.642 1278.52 106.201C1280.89 102.76 1282.15 98.7151 1282.15 94.5769C1282.15 89.0278 1279.88 83.706 1275.85 79.7821C1271.81 75.8583 1266.33 73.6539 1260.62 73.6539Z" fill="#333333"/>
<path d="M1274.08 47.5H1220.23C1218.8 47.5 1217.43 48.0511 1216.42 49.0321C1215.41 50.013 1214.85 51.3435 1214.85 52.7307V105.038C1214.85 106.426 1215.41 107.756 1216.42 108.737C1217.43 109.718 1218.8 110.269 1220.23 110.269H1231V105.038H1220.23V68.423H1279.46V52.7307C1279.46 51.3435 1278.89 50.013 1277.88 49.0321C1276.87 48.0511 1275.5 47.5 1274.08 47.5ZM1220.23 63.1922V52.7307H1274.08V63.1922H1220.23Z" fill="#333333"/>
<path d="M1255.23 86.731V102.423L1268.69 94.5771L1255.23 86.731Z" fill="#333333"/>
</svg>
