<svg width="1363" height="163" viewBox="0 0 1363 163" fill="none" xmlns="http://www.w3.org/2000/svg">
<path d="M0 15C0 6.71573 6.71573 0 15 0H37V163H15C6.71573 163 0 156.284 0 148V15Z" fill="#333333"/>
<rect width="1097" height="163" transform="translate(37)" fill="#F0F0F0"/>
<path d="M101.906 53.9219L94.3945 51.2383V48.0859L104.602 52.375V54.6367L101.906 53.9219ZM94.3945 56.1719L101.918 53.4297L104.602 52.7852V55.0352L94.3945 59.3242V56.1719ZM114.504 43.9375H117.48L121.863 56.4648L126.246 43.9375H129.223L123.059 61H120.668L114.504 43.9375ZM112.898 43.9375H115.863L116.402 56.1484V61H112.898V43.9375ZM127.863 43.9375H130.84V61H127.324V56.1484L127.863 43.9375ZM141.211 57.9648V48.3203H144.586V61H141.41L141.211 57.9648ZM141.586 55.3633L142.582 55.3398C142.582 56.1836 142.484 56.9688 142.289 57.6953C142.094 58.4141 141.801 59.0391 141.41 59.5703C141.02 60.0938 140.527 60.5039 139.934 60.8008C139.34 61.0898 138.641 61.2344 137.836 61.2344C137.219 61.2344 136.648 61.1484 136.125 60.9766C135.609 60.7969 135.164 60.5195 134.789 60.1445C134.422 59.7617 134.133 59.2734 133.922 58.6797C133.719 58.0781 133.617 57.3555 133.617 56.5117V48.3203H136.992V56.5352C136.992 56.9102 137.035 57.2266 137.121 57.4844C137.215 57.7422 137.344 57.9531 137.508 58.1172C137.672 58.2812 137.863 58.3984 138.082 58.4688C138.309 58.5391 138.559 58.5742 138.832 58.5742C139.527 58.5742 140.074 58.4336 140.473 58.1523C140.879 57.8711 141.164 57.4883 141.328 57.0039C141.5 56.5117 141.586 55.9648 141.586 55.3633ZM154.02 57.4961C154.02 57.2539 153.949 57.0352 153.809 56.8398C153.668 56.6445 153.406 56.4648 153.023 56.3008C152.648 56.1289 152.105 55.9727 151.395 55.832C150.754 55.6914 150.156 55.5156 149.602 55.3047C149.055 55.0859 148.578 54.8242 148.172 54.5195C147.773 54.2148 147.461 53.8555 147.234 53.4414C147.008 53.0195 146.895 52.5391 146.895 52C146.895 51.4688 147.008 50.9688 147.234 50.5C147.469 50.0312 147.801 49.6172 148.23 49.2578C148.668 48.8906 149.199 48.6055 149.824 48.4023C150.457 48.1914 151.168 48.0859 151.957 48.0859C153.059 48.0859 154.004 48.2617 154.793 48.6133C155.59 48.9648 156.199 49.4492 156.621 50.0664C157.051 50.6758 157.266 51.3711 157.266 52.1523H153.891C153.891 51.8242 153.82 51.5312 153.68 51.2734C153.547 51.0078 153.336 50.8008 153.047 50.6523C152.766 50.4961 152.398 50.418 151.945 50.418C151.57 50.418 151.246 50.4844 150.973 50.6172C150.699 50.7422 150.488 50.9141 150.34 51.1328C150.199 51.3438 150.129 51.5781 150.129 51.8359C150.129 52.0312 150.168 52.207 150.246 52.3633C150.332 52.5117 150.469 52.6484 150.656 52.7734C150.844 52.8984 151.086 53.0156 151.383 53.125C151.688 53.2266 152.062 53.3203 152.508 53.4062C153.422 53.5938 154.238 53.8398 154.957 54.1445C155.676 54.4414 156.246 54.8477 156.668 55.3633C157.09 55.8711 157.301 56.5391 157.301 57.3672C157.301 57.9297 157.176 58.4453 156.926 58.9141C156.676 59.3828 156.316 59.793 155.848 60.1445C155.379 60.4883 154.816 60.7578 154.16 60.9531C153.512 61.1406 152.781 61.2344 151.969 61.2344C150.789 61.2344 149.789 61.0234 148.969 60.6016C148.156 60.1797 147.539 59.6445 147.117 58.9961C146.703 58.3398 146.496 57.668 146.496 56.9805H149.695C149.711 57.4414 149.828 57.8125 150.047 58.0938C150.273 58.375 150.559 58.5781 150.902 58.7031C151.254 58.8281 151.633 58.8906 152.039 58.8906C152.477 58.8906 152.84 58.832 153.129 58.7148C153.418 58.5898 153.637 58.4258 153.785 58.2227C153.941 58.0117 154.02 57.7695 154.02 57.4961ZM165.328 61.2344C164.344 61.2344 163.461 61.0781 162.68 60.7656C161.898 60.4453 161.234 60.0039 160.688 59.4414C160.148 58.8789 159.734 58.2266 159.445 57.4844C159.156 56.7344 159.012 55.9375 159.012 55.0938V54.625C159.012 53.6641 159.148 52.7852 159.422 51.9883C159.695 51.1914 160.086 50.5 160.594 49.9141C161.109 49.3281 161.734 48.8789 162.469 48.5664C163.203 48.2461 164.031 48.0859 164.953 48.0859C165.852 48.0859 166.648 48.2344 167.344 48.5312C168.039 48.8281 168.621 49.25 169.09 49.7969C169.566 50.3438 169.926 51 170.168 51.7656C170.41 52.5234 170.531 53.3672 170.531 54.2969V55.7031H160.453V53.4531H167.215V53.1953C167.215 52.7266 167.129 52.3086 166.957 51.9414C166.793 51.5664 166.543 51.2695 166.207 51.0508C165.871 50.832 165.441 50.7227 164.918 50.7227C164.473 50.7227 164.09 50.8203 163.77 51.0156C163.449 51.2109 163.188 51.4844 162.984 51.8359C162.789 52.1875 162.641 52.6016 162.539 53.0781C162.445 53.5469 162.398 54.0625 162.398 54.625V55.0938C162.398 55.6016 162.469 56.0703 162.609 56.5C162.758 56.9297 162.965 57.3008 163.23 57.6133C163.504 57.9258 163.832 58.168 164.215 58.3398C164.605 58.5117 165.047 58.5977 165.539 58.5977C166.148 58.5977 166.715 58.4805 167.238 58.2461C167.77 58.0039 168.227 57.6406 168.609 57.1562L170.25 58.9375C169.984 59.3203 169.621 59.6875 169.16 60.0391C168.707 60.3906 168.16 60.6797 167.52 60.9062C166.879 61.125 166.148 61.2344 165.328 61.2344ZM171.914 54.7891V54.543C171.914 53.6133 172.047 52.7578 172.312 51.9766C172.578 51.1875 172.965 50.5039 173.473 49.9258C173.98 49.3477 174.605 48.8984 175.348 48.5781C176.09 48.25 176.941 48.0859 177.902 48.0859C178.863 48.0859 179.719 48.25 180.469 48.5781C181.219 48.8984 181.848 49.3477 182.355 49.9258C182.871 50.5039 183.262 51.1875 183.527 51.9766C183.793 52.7578 183.926 53.6133 183.926 54.543V54.7891C183.926 55.7109 183.793 56.5664 183.527 57.3555C183.262 58.1367 182.871 58.8203 182.355 59.4062C181.848 59.9844 181.223 60.4336 180.48 60.7539C179.738 61.0742 178.887 61.2344 177.926 61.2344C176.965 61.2344 176.109 61.0742 175.359 60.7539C174.617 60.4336 173.988 59.9844 173.473 59.4062C172.965 58.8203 172.578 58.1367 172.312 57.3555C172.047 56.5664 171.914 55.7109 171.914 54.7891ZM175.289 54.543V54.7891C175.289 55.3203 175.336 55.8164 175.43 56.2773C175.523 56.7383 175.672 57.1445 175.875 57.4961C176.086 57.8398 176.359 58.1094 176.695 58.3047C177.031 58.5 177.441 58.5977 177.926 58.5977C178.395 58.5977 178.797 58.5 179.133 58.3047C179.469 58.1094 179.738 57.8398 179.941 57.4961C180.145 57.1445 180.293 56.7383 180.387 56.2773C180.488 55.8164 180.539 55.3203 180.539 54.7891V54.543C180.539 54.0273 180.488 53.543 180.387 53.0898C180.293 52.6289 180.141 52.2227 179.93 51.8711C179.727 51.5117 179.457 51.2305 179.121 51.0273C178.785 50.8242 178.379 50.7227 177.902 50.7227C177.426 50.7227 177.02 50.8242 176.684 51.0273C176.355 51.2305 176.086 51.5117 175.875 51.8711C175.672 52.2227 175.523 52.6289 175.43 53.0898C175.336 53.543 175.289 54.0273 175.289 54.543Z" fill="#888888"/>
<path d="M114.117 84.875H122.344V107.164C122.344 109.82 121.789 112.07 120.68 113.914C119.57 115.742 118.016 117.125 116.016 118.062C114.016 119 111.664 119.469 108.961 119.469C106.289 119.469 103.938 119 101.906 118.062C99.8906 117.125 98.3125 115.742 97.1719 113.914C96.0469 112.07 95.4844 109.82 95.4844 107.164V84.875H103.734V107.164C103.734 108.57 103.938 109.719 104.344 110.609C104.75 111.484 105.344 112.125 106.125 112.531C106.906 112.938 107.852 113.141 108.961 113.141C110.086 113.141 111.031 112.938 111.797 112.531C112.562 112.125 113.141 111.484 113.531 110.609C113.922 109.719 114.117 108.57 114.117 107.164V84.875ZM136.266 84.875V119H128.062V84.875H136.266ZM172.523 84.875H180.75V107.164C180.75 109.82 180.195 112.07 179.086 113.914C177.977 115.742 176.422 117.125 174.422 118.062C172.422 119 170.07 119.469 167.367 119.469C164.695 119.469 162.344 119 160.312 118.062C158.297 117.125 156.719 115.742 155.578 113.914C154.453 112.07 153.891 109.82 153.891 107.164V84.875H162.141V107.164C162.141 108.57 162.344 109.719 162.75 110.609C163.156 111.484 163.75 112.125 164.531 112.531C165.312 112.938 166.258 113.141 167.367 113.141C168.492 113.141 169.438 112.938 170.203 112.531C170.969 112.125 171.547 111.484 171.938 110.609C172.328 109.719 172.523 108.57 172.523 107.164V84.875ZM193.078 84.875L198.656 96.2188L204.234 84.875H213.609L204.094 101.797L213.867 119H204.398L198.656 107.445L192.914 119H183.422L193.219 101.797L183.68 84.875H193.078Z" fill="black"/>
<path d="M1134 0H1348C1356.28 0 1363 6.71573 1363 15V148C1363 156.284 1356.28 163 1348 163H1134V0Z" fill="#DCD0C3"/>
<path d="M1248.5 111.917C1244.51 111.917 1240.55 111.13 1236.86 109.601C1233.17 108.073 1229.82 105.832 1226.99 103.008C1221.29 97.3036 1218.08 89.567 1218.08 81.5C1218.08 73.433 1221.29 65.6964 1226.99 59.9922C1232.7 54.2879 1240.43 51.0833 1248.5 51.0833C1265.23 51.0833 1278.92 63.25 1278.92 78.4583C1278.92 83.2985 1276.99 87.9405 1273.57 91.363C1270.15 94.7856 1265.51 96.7083 1260.67 96.7083H1255.19C1254.28 96.7083 1253.67 97.3167 1253.67 98.2292C1253.67 98.5333 1253.97 98.8375 1253.97 99.1417C1255.19 100.662 1255.8 102.487 1255.8 104.312C1256.1 108.571 1252.76 111.917 1248.5 111.917ZM1248.5 57.1667C1242.05 57.1667 1235.86 59.7303 1231.29 64.2937C1226.73 68.8571 1224.17 75.0464 1224.17 81.5C1224.17 87.9536 1226.73 94.1429 1231.29 98.7063C1235.86 103.27 1242.05 105.833 1248.5 105.833C1249.41 105.833 1250.02 105.225 1250.02 104.312C1250.02 103.704 1249.72 103.4 1249.72 103.096C1248.5 101.575 1247.89 100.054 1247.89 98.2292C1247.89 93.9708 1251.24 90.625 1255.5 90.625H1260.67C1263.89 90.625 1266.99 89.3432 1269.27 87.0615C1271.55 84.7798 1272.83 81.6851 1272.83 78.4583C1272.83 66.5958 1261.88 57.1667 1248.5 57.1667ZM1231.77 75.4167C1234.2 75.4167 1236.33 77.5458 1236.33 79.9792C1236.33 82.4125 1234.2 84.5417 1231.77 84.5417C1229.34 84.5417 1227.21 82.4125 1227.21 79.9792C1227.21 77.5458 1229.34 75.4167 1231.77 75.4167ZM1240.9 63.25C1243.33 63.25 1245.46 65.3792 1245.46 67.8125C1245.46 70.2458 1243.33 72.375 1240.9 72.375C1238.46 72.375 1236.33 70.2458 1236.33 67.8125C1236.33 65.3792 1238.46 63.25 1240.9 63.25ZM1256.1 63.25C1258.54 63.25 1260.67 65.3792 1260.67 67.8125C1260.67 70.2458 1258.54 72.375 1256.1 72.375C1253.67 72.375 1251.54 70.2458 1251.54 67.8125C1251.54 65.3792 1253.67 63.25 1256.1 63.25ZM1265.23 75.4167C1267.66 75.4167 1269.79 77.5458 1269.79 79.9792C1269.79 82.4125 1267.66 84.5417 1265.23 84.5417C1262.8 84.5417 1260.67 82.4125 1260.67 79.9792C1260.67 77.5458 1262.8 75.4167 1265.23 75.4167Z" fill="#333333"/>
</svg>
