<svg width="1363" height="163" viewBox="0 0 1363 163" fill="none" xmlns="http://www.w3.org/2000/svg">
<path d="M0 15C0 6.71573 6.71573 0 15 0H37V163H15C6.71573 163 0 156.284 0 148V15Z" fill="#333333"/>
<rect width="1097" height="163" transform="translate(37)" fill="#F0F0F0"/>
<path d="M101.906 53.9219L94.3945 51.2383V48.0859L104.602 52.375V54.6367L101.906 53.9219ZM94.3945 56.1719L101.918 53.4297L104.602 52.7852V55.0352L94.3945 59.3242V56.1719ZM114.504 43.9375H117.48L121.863 56.4648L126.246 43.9375H129.223L123.059 61H120.668L114.504 43.9375ZM112.898 43.9375H115.863L116.402 56.1484V61H112.898V43.9375ZM127.863 43.9375H130.84V61H127.324V56.1484L127.863 43.9375ZM141.211 57.9648V48.3203H144.586V61H141.41L141.211 57.9648ZM141.586 55.3633L142.582 55.3398C142.582 56.1836 142.484 56.9688 142.289 57.6953C142.094 58.4141 141.801 59.0391 141.41 59.5703C141.02 60.0938 140.527 60.5039 139.934 60.8008C139.34 61.0898 138.641 61.2344 137.836 61.2344C137.219 61.2344 136.648 61.1484 136.125 60.9766C135.609 60.7969 135.164 60.5195 134.789 60.1445C134.422 59.7617 134.133 59.2734 133.922 58.6797C133.719 58.0781 133.617 57.3555 133.617 56.5117V48.3203H136.992V56.5352C136.992 56.9102 137.035 57.2266 137.121 57.4844C137.215 57.7422 137.344 57.9531 137.508 58.1172C137.672 58.2812 137.863 58.3984 138.082 58.4688C138.309 58.5391 138.559 58.5742 138.832 58.5742C139.527 58.5742 140.074 58.4336 140.473 58.1523C140.879 57.8711 141.164 57.4883 141.328 57.0039C141.5 56.5117 141.586 55.9648 141.586 55.3633ZM154.02 57.4961C154.02 57.2539 153.949 57.0352 153.809 56.8398C153.668 56.6445 153.406 56.4648 153.023 56.3008C152.648 56.1289 152.105 55.9727 151.395 55.832C150.754 55.6914 150.156 55.5156 149.602 55.3047C149.055 55.0859 148.578 54.8242 148.172 54.5195C147.773 54.2148 147.461 53.8555 147.234 53.4414C147.008 53.0195 146.895 52.5391 146.895 52C146.895 51.4688 147.008 50.9688 147.234 50.5C147.469 50.0312 147.801 49.6172 148.23 49.2578C148.668 48.8906 149.199 48.6055 149.824 48.4023C150.457 48.1914 151.168 48.0859 151.957 48.0859C153.059 48.0859 154.004 48.2617 154.793 48.6133C155.59 48.9648 156.199 49.4492 156.621 50.0664C157.051 50.6758 157.266 51.3711 157.266 52.1523H153.891C153.891 51.8242 153.82 51.5312 153.68 51.2734C153.547 51.0078 153.336 50.8008 153.047 50.6523C152.766 50.4961 152.398 50.418 151.945 50.418C151.57 50.418 151.246 50.4844 150.973 50.6172C150.699 50.7422 150.488 50.9141 150.34 51.1328C150.199 51.3438 150.129 51.5781 150.129 51.8359C150.129 52.0312 150.168 52.207 150.246 52.3633C150.332 52.5117 150.469 52.6484 150.656 52.7734C150.844 52.8984 151.086 53.0156 151.383 53.125C151.688 53.2266 152.062 53.3203 152.508 53.4062C153.422 53.5938 154.238 53.8398 154.957 54.1445C155.676 54.4414 156.246 54.8477 156.668 55.3633C157.09 55.8711 157.301 56.5391 157.301 57.3672C157.301 57.9297 157.176 58.4453 156.926 58.9141C156.676 59.3828 156.316 59.793 155.848 60.1445C155.379 60.4883 154.816 60.7578 154.16 60.9531C153.512 61.1406 152.781 61.2344 151.969 61.2344C150.789 61.2344 149.789 61.0234 148.969 60.6016C148.156 60.1797 147.539 59.6445 147.117 58.9961C146.703 58.3398 146.496 57.668 146.496 56.9805H149.695C149.711 57.4414 149.828 57.8125 150.047 58.0938C150.273 58.375 150.559 58.5781 150.902 58.7031C151.254 58.8281 151.633 58.8906 152.039 58.8906C152.477 58.8906 152.84 58.832 153.129 58.7148C153.418 58.5898 153.637 58.4258 153.785 58.2227C153.941 58.0117 154.02 57.7695 154.02 57.4961ZM165.328 61.2344C164.344 61.2344 163.461 61.0781 162.68 60.7656C161.898 60.4453 161.234 60.0039 160.688 59.4414C160.148 58.8789 159.734 58.2266 159.445 57.4844C159.156 56.7344 159.012 55.9375 159.012 55.0938V54.625C159.012 53.6641 159.148 52.7852 159.422 51.9883C159.695 51.1914 160.086 50.5 160.594 49.9141C161.109 49.3281 161.734 48.8789 162.469 48.5664C163.203 48.2461 164.031 48.0859 164.953 48.0859C165.852 48.0859 166.648 48.2344 167.344 48.5312C168.039 48.8281 168.621 49.25 169.09 49.7969C169.566 50.3438 169.926 51 170.168 51.7656C170.41 52.5234 170.531 53.3672 170.531 54.2969V55.7031H160.453V53.4531H167.215V53.1953C167.215 52.7266 167.129 52.3086 166.957 51.9414C166.793 51.5664 166.543 51.2695 166.207 51.0508C165.871 50.832 165.441 50.7227 164.918 50.7227C164.473 50.7227 164.09 50.8203 163.77 51.0156C163.449 51.2109 163.188 51.4844 162.984 51.8359C162.789 52.1875 162.641 52.6016 162.539 53.0781C162.445 53.5469 162.398 54.0625 162.398 54.625V55.0938C162.398 55.6016 162.469 56.0703 162.609 56.5C162.758 56.9297 162.965 57.3008 163.23 57.6133C163.504 57.9258 163.832 58.168 164.215 58.3398C164.605 58.5117 165.047 58.5977 165.539 58.5977C166.148 58.5977 166.715 58.4805 167.238 58.2461C167.77 58.0039 168.227 57.6406 168.609 57.1562L170.25 58.9375C169.984 59.3203 169.621 59.6875 169.16 60.0391C168.707 60.3906 168.16 60.6797 167.52 60.9062C166.879 61.125 166.148 61.2344 165.328 61.2344ZM171.914 54.7891V54.543C171.914 53.6133 172.047 52.7578 172.312 51.9766C172.578 51.1875 172.965 50.5039 173.473 49.9258C173.98 49.3477 174.605 48.8984 175.348 48.5781C176.09 48.25 176.941 48.0859 177.902 48.0859C178.863 48.0859 179.719 48.25 180.469 48.5781C181.219 48.8984 181.848 49.3477 182.355 49.9258C182.871 50.5039 183.262 51.1875 183.527 51.9766C183.793 52.7578 183.926 53.6133 183.926 54.543V54.7891C183.926 55.7109 183.793 56.5664 183.527 57.3555C183.262 58.1367 182.871 58.8203 182.355 59.4062C181.848 59.9844 181.223 60.4336 180.48 60.7539C179.738 61.0742 178.887 61.2344 177.926 61.2344C176.965 61.2344 176.109 61.0742 175.359 60.7539C174.617 60.4336 173.988 59.9844 173.473 59.4062C172.965 58.8203 172.578 58.1367 172.312 57.3555C172.047 56.5664 171.914 55.7109 171.914 54.7891ZM175.289 54.543V54.7891C175.289 55.3203 175.336 55.8164 175.43 56.2773C175.523 56.7383 175.672 57.1445 175.875 57.4961C176.086 57.8398 176.359 58.1094 176.695 58.3047C177.031 58.5 177.441 58.5977 177.926 58.5977C178.395 58.5977 178.797 58.5 179.133 58.3047C179.469 58.1094 179.738 57.8398 179.941 57.4961C180.145 57.1445 180.293 56.7383 180.387 56.2773C180.488 55.8164 180.539 55.3203 180.539 54.7891V54.543C180.539 54.0273 180.488 53.543 180.387 53.0898C180.293 52.6289 180.141 52.2227 179.93 51.8711C179.727 51.5117 179.457 51.2305 179.121 51.0273C178.785 50.8242 178.379 50.7227 177.902 50.7227C177.426 50.7227 177.02 50.8242 176.684 51.0273C176.355 51.2305 176.086 51.5117 175.875 51.8711C175.672 52.2227 175.523 52.6289 175.43 53.0898C175.336 53.543 175.289 54.0273 175.289 54.543Z" fill="#888888"/>
<path d="M114.117 84.875H122.344V107.164C122.344 109.82 121.789 112.07 120.68 113.914C119.57 115.742 118.016 117.125 116.016 118.062C114.016 119 111.664 119.469 108.961 119.469C106.289 119.469 103.938 119 101.906 118.062C99.8906 117.125 98.3125 115.742 97.1719 113.914C96.0469 112.07 95.4844 109.82 95.4844 107.164V84.875H103.734V107.164C103.734 108.57 103.938 109.719 104.344 110.609C104.75 111.484 105.344 112.125 106.125 112.531C106.906 112.938 107.852 113.141 108.961 113.141C110.086 113.141 111.031 112.938 111.797 112.531C112.562 112.125 113.141 111.484 113.531 110.609C113.922 109.719 114.117 108.57 114.117 107.164V84.875ZM134.906 99.0547V119H127.008V93.6406H134.414L134.906 99.0547ZM133.969 105.453L132.117 105.5C132.117 103.562 132.352 101.836 132.82 100.32C133.289 98.7891 133.953 97.4922 134.812 96.4297C135.672 95.3672 136.695 94.5625 137.883 94.0156C139.086 93.4531 140.422 93.1719 141.891 93.1719C143.062 93.1719 144.133 93.3438 145.102 93.6875C146.086 94.0312 146.93 94.5859 147.633 95.3516C148.352 96.1172 148.898 97.1328 149.273 98.3984C149.664 99.6484 149.859 101.195 149.859 103.039V119H141.914V103.016C141.914 102 141.773 101.227 141.492 100.695C141.211 100.148 140.805 99.7734 140.273 99.5703C139.742 99.3672 139.094 99.2656 138.328 99.2656C137.516 99.2656 136.828 99.4219 136.266 99.7344C135.703 100.047 135.25 100.484 134.906 101.047C134.578 101.594 134.336 102.242 134.18 102.992C134.039 103.742 133.969 104.562 133.969 105.453ZM162.586 93.6406V119H154.664V93.6406H162.586ZM154.195 87.1016C154.195 85.9766 154.602 85.0547 155.414 84.3359C156.227 83.6172 157.281 83.2578 158.578 83.2578C159.875 83.2578 160.93 83.6172 161.742 84.3359C162.555 85.0547 162.961 85.9766 162.961 87.1016C162.961 88.2266 162.555 89.1484 161.742 89.8672C160.93 90.5859 159.875 90.9453 158.578 90.9453C157.281 90.9453 156.227 90.5859 155.414 89.8672C154.602 89.1484 154.195 88.2266 154.195 87.1016ZM180.82 93.6406V99.125H165.539V93.6406H180.82ZM168.75 87.3359H176.648V110.727C176.648 111.398 176.727 111.922 176.883 112.297C177.039 112.656 177.305 112.914 177.68 113.07C178.07 113.211 178.586 113.281 179.227 113.281C179.68 113.281 180.055 113.273 180.352 113.258C180.648 113.227 180.93 113.188 181.195 113.141V118.789C180.523 119.008 179.82 119.172 179.086 119.281C178.352 119.406 177.57 119.469 176.742 119.469C175.055 119.469 173.609 119.203 172.406 118.672C171.219 118.141 170.312 117.305 169.688 116.164C169.062 115.023 168.75 113.539 168.75 111.711V87.3359ZM211.406 84.875V119H203.18V84.875H211.406ZM221.672 84.875V91.2266H193.148V84.875H221.672ZM234.961 119.469C232.898 119.469 231.055 119.148 229.43 118.508C227.805 117.852 226.43 116.953 225.305 115.812C224.195 114.672 223.344 113.359 222.75 111.875C222.172 110.391 221.883 108.82 221.883 107.164V106.273C221.883 104.414 222.141 102.695 222.656 101.117C223.172 99.5234 223.938 98.1328 224.953 96.9453C225.969 95.7578 227.242 94.8359 228.773 94.1797C230.305 93.5078 232.086 93.1719 234.117 93.1719C235.914 93.1719 237.523 93.4609 238.945 94.0391C240.367 94.6172 241.57 95.4453 242.555 96.5234C243.555 97.6016 244.312 98.9062 244.828 100.438C245.359 101.969 245.625 103.688 245.625 105.594V108.805H224.906V103.859H237.914V103.25C237.93 102.406 237.781 101.688 237.469 101.094C237.172 100.5 236.734 100.047 236.156 99.7344C235.578 99.4219 234.875 99.2656 234.047 99.2656C233.188 99.2656 232.477 99.4531 231.914 99.8281C231.367 100.203 230.938 100.719 230.625 101.375C230.328 102.016 230.117 102.758 229.992 103.602C229.867 104.445 229.805 105.336 229.805 106.273V107.164C229.805 108.102 229.93 108.953 230.18 109.719C230.445 110.484 230.82 111.141 231.305 111.688C231.805 112.219 232.398 112.633 233.086 112.93C233.789 113.227 234.586 113.375 235.477 113.375C236.555 113.375 237.617 113.172 238.664 112.766C239.711 112.359 240.609 111.688 241.359 110.75L244.945 115.016C244.43 115.75 243.695 116.461 242.742 117.148C241.805 117.836 240.68 118.398 239.367 118.836C238.055 119.258 236.586 119.469 234.961 119.469ZM262.125 111.875C262.125 111.438 261.977 111.062 261.68 110.75C261.398 110.422 260.898 110.125 260.18 109.859C259.461 109.578 258.453 109.297 257.156 109.016C255.922 108.75 254.758 108.398 253.664 107.961C252.586 107.523 251.641 106.992 250.828 106.367C250.016 105.742 249.375 105 248.906 104.141C248.453 103.281 248.227 102.297 248.227 101.188C248.227 100.109 248.453 99.0938 248.906 98.1406C249.375 97.1719 250.055 96.3203 250.945 95.5859C251.852 94.8359 252.953 94.25 254.25 93.8281C255.547 93.3906 257.023 93.1719 258.68 93.1719C260.961 93.1719 262.93 93.5234 264.586 94.2266C266.242 94.9141 267.516 95.8828 268.406 97.1328C269.312 98.3672 269.766 99.7969 269.766 101.422H261.867C261.867 100.781 261.758 100.234 261.539 99.7812C261.336 99.3281 261 98.9844 260.531 98.75C260.062 98.5 259.438 98.375 258.656 98.375C258.109 98.375 257.609 98.4766 257.156 98.6797C256.719 98.8828 256.367 99.1641 256.102 99.5234C255.836 99.8828 255.703 100.305 255.703 100.789C255.703 101.133 255.781 101.445 255.938 101.727C256.109 101.992 256.367 102.242 256.711 102.477C257.055 102.695 257.492 102.898 258.023 103.086C258.555 103.258 259.195 103.414 259.945 103.555C261.648 103.867 263.242 104.312 264.727 104.891C266.211 105.469 267.414 106.289 268.336 107.352C269.273 108.414 269.742 109.844 269.742 111.641C269.742 112.766 269.484 113.805 268.969 114.758C268.453 115.695 267.711 116.523 266.742 117.242C265.773 117.945 264.609 118.492 263.25 118.883C261.891 119.273 260.359 119.469 258.656 119.469C256.234 119.469 254.188 119.039 252.516 118.18C250.844 117.305 249.578 116.211 248.719 114.898C247.875 113.57 247.453 112.227 247.453 110.867H254.812C254.844 111.648 255.031 112.289 255.375 112.789C255.734 113.289 256.211 113.656 256.805 113.891C257.398 114.125 258.086 114.242 258.867 114.242C259.586 114.242 260.18 114.141 260.648 113.938C261.133 113.734 261.5 113.461 261.75 113.117C262 112.758 262.125 112.344 262.125 111.875ZM286.805 93.6406V99.125H271.523V93.6406H286.805ZM274.734 87.3359H282.633V110.727C282.633 111.398 282.711 111.922 282.867 112.297C283.023 112.656 283.289 112.914 283.664 113.07C284.055 113.211 284.57 113.281 285.211 113.281C285.664 113.281 286.039 113.273 286.336 113.258C286.633 113.227 286.914 113.188 287.18 113.141V118.789C286.508 119.008 285.805 119.172 285.07 119.281C284.336 119.406 283.555 119.469 282.727 119.469C281.039 119.469 279.594 119.203 278.391 118.672C277.203 118.141 276.297 117.305 275.672 116.164C275.047 115.023 274.734 113.539 274.734 111.711V87.3359ZM298.289 93.6406V119H290.367V93.6406H298.289ZM289.898 87.1016C289.898 85.9766 290.305 85.0547 291.117 84.3359C291.93 83.6172 292.984 83.2578 294.281 83.2578C295.578 83.2578 296.633 83.6172 297.445 84.3359C298.258 85.0547 298.664 85.9766 298.664 87.1016C298.664 88.2266 298.258 89.1484 297.445 89.8672C296.633 90.5859 295.578 90.9453 294.281 90.9453C292.984 90.9453 291.93 90.5859 291.117 89.8672C290.305 89.1484 289.898 88.2266 289.898 87.1016ZM310.922 99.0547V119H303.023V93.6406H310.43L310.922 99.0547ZM309.984 105.453L308.133 105.5C308.133 103.562 308.367 101.836 308.836 100.32C309.305 98.7891 309.969 97.4922 310.828 96.4297C311.688 95.3672 312.711 94.5625 313.898 94.0156C315.102 93.4531 316.438 93.1719 317.906 93.1719C319.078 93.1719 320.148 93.3438 321.117 93.6875C322.102 94.0312 322.945 94.5859 323.648 95.3516C324.367 96.1172 324.914 97.1328 325.289 98.3984C325.68 99.6484 325.875 101.195 325.875 103.039V119H317.93V103.016C317.93 102 317.789 101.227 317.508 100.695C317.227 100.148 316.82 99.7734 316.289 99.5703C315.758 99.3672 315.109 99.2656 314.344 99.2656C313.531 99.2656 312.844 99.4219 312.281 99.7344C311.719 100.047 311.266 100.484 310.922 101.047C310.594 101.594 310.352 102.242 310.195 102.992C310.055 103.742 309.984 104.562 309.984 105.453ZM346.195 93.6406H353.367V118.016C353.367 120.359 352.828 122.344 351.75 123.969C350.672 125.609 349.164 126.852 347.227 127.695C345.305 128.555 343.055 128.984 340.477 128.984C339.336 128.984 338.172 128.836 336.984 128.539C335.797 128.258 334.688 127.836 333.656 127.273C332.625 126.711 331.758 126.016 331.055 125.188L334.359 120.547C335 121.266 335.805 121.875 336.773 122.375C337.742 122.891 338.883 123.148 340.195 123.148C341.336 123.148 342.289 122.945 343.055 122.539C343.836 122.133 344.43 121.539 344.836 120.758C345.242 119.992 345.445 119.062 345.445 117.969V99.6406L346.195 93.6406ZM329.344 106.625V106.133C329.344 104.211 329.578 102.461 330.047 100.883C330.531 99.2891 331.219 97.9219 332.109 96.7812C333.016 95.625 334.109 94.7344 335.391 94.1094C336.672 93.4844 338.117 93.1719 339.727 93.1719C341.461 93.1719 342.883 93.5078 343.992 94.1797C345.117 94.8359 346.016 95.7578 346.688 96.9453C347.375 98.1328 347.906 99.5234 348.281 101.117C348.672 102.695 349 104.398 349.266 106.227V106.812C349 108.531 348.633 110.156 348.164 111.688C347.711 113.203 347.117 114.547 346.383 115.719C345.648 116.891 344.727 117.812 343.617 118.484C342.523 119.141 341.211 119.469 339.68 119.469C338.086 119.469 336.648 119.148 335.367 118.508C334.102 117.867 333.016 116.969 332.109 115.812C331.219 114.656 330.531 113.297 330.047 111.734C329.578 110.172 329.344 108.469 329.344 106.625ZM337.242 106.133V106.625C337.242 107.578 337.328 108.461 337.5 109.273C337.688 110.086 337.969 110.805 338.344 111.43C338.719 112.039 339.18 112.516 339.727 112.859C340.289 113.203 340.945 113.375 341.695 113.375C342.836 113.375 343.758 113.133 344.461 112.648C345.164 112.164 345.672 111.477 345.984 110.586C346.297 109.695 346.43 108.648 346.383 107.445V105.594C346.414 104.562 346.344 103.656 346.172 102.875C346 102.078 345.727 101.414 345.352 100.883C344.992 100.352 344.508 99.9531 343.898 99.6875C343.305 99.4062 342.586 99.2656 341.742 99.2656C341.008 99.2656 340.359 99.4375 339.797 99.7812C339.234 100.125 338.766 100.609 338.391 101.234C338.016 101.844 337.727 102.57 337.523 103.414C337.336 104.242 337.242 105.148 337.242 106.133Z" fill="black"/>
<path d="M1134 0H1348C1356.28 0 1363 6.71573 1363 15V148C1363 156.284 1356.28 163 1348 163H1134V0Z" fill="#DCD0C3"/>
<path d="M1210.62 43.625H1286.38V119.375H1210.62V43.625Z" fill="white" fill-opacity="0.01"/>
<path d="M1276.91 72.0312V105.172C1276.91 107.787 1274.79 109.906 1272.17 109.906H1224.83C1222.21 109.906 1220.09 107.787 1220.09 105.172V57.8281C1220.09 55.2134 1222.21 53.0938 1224.83 53.0938H1261.12" stroke="#333333" stroke-width="7.24" stroke-linecap="round" stroke-linejoin="round"/>
<path d="M1232.72 75.1875L1248.5 87.8125L1276.91 53.0938" stroke="#333333" stroke-width="7.24" stroke-linecap="round" stroke-linejoin="round"/>
</svg>
